<mxfile host="app.diagrams.net" modified="2022-10-31T10:13:24.932Z" agent="5.0 (Windows NT 10.0; Win64; x64) AppleWebKit/537.36 (KHTML, like Gecko) Chrome/107.0.0.0 Safari/537.36 Edg/107.0.1418.26" etag="z92OYese4c8zRkREdITA" version="20.5.1" type="github">
  <diagram id="KLlqkVO4b6l8Dl6feIu6" name="第 1 页">
    <mxGraphModel dx="1185" dy="635" grid="1" gridSize="10" guides="1" tooltips="1" connect="1" arrows="1" fold="1" page="1" pageScale="1" pageWidth="827" pageHeight="1169" math="0" shadow="0">
      <root>
        <mxCell id="0" />
        <mxCell id="1" parent="0" />
        <mxCell id="pewL5Vv0dTGX8aQUwCoX-5" style="edgeStyle=orthogonalEdgeStyle;rounded=0;orthogonalLoop=1;jettySize=auto;html=1;entryX=0;entryY=0.5;entryDx=0;entryDy=0;" edge="1" parent="1" source="pewL5Vv0dTGX8aQUwCoX-1" target="pewL5Vv0dTGX8aQUwCoX-4">
          <mxGeometry relative="1" as="geometry" />
        </mxCell>
        <mxCell id="pewL5Vv0dTGX8aQUwCoX-1" value="用户访问前台首页" style="rounded=1;whiteSpace=wrap;html=1;" vertex="1" parent="1">
          <mxGeometry x="160" y="120" width="80" height="40" as="geometry" />
        </mxCell>
        <mxCell id="pewL5Vv0dTGX8aQUwCoX-7" style="edgeStyle=orthogonalEdgeStyle;rounded=0;orthogonalLoop=1;jettySize=auto;html=1;entryX=0.5;entryY=0;entryDx=0;entryDy=0;" edge="1" parent="1" source="pewL5Vv0dTGX8aQUwCoX-4" target="pewL5Vv0dTGX8aQUwCoX-6">
          <mxGeometry relative="1" as="geometry" />
        </mxCell>
        <mxCell id="pewL5Vv0dTGX8aQUwCoX-4" value="点击预约挂号" style="rounded=0;whiteSpace=wrap;html=1;" vertex="1" parent="1">
          <mxGeometry x="280" y="120" width="80" height="40" as="geometry" />
        </mxCell>
        <mxCell id="pewL5Vv0dTGX8aQUwCoX-10" style="edgeStyle=orthogonalEdgeStyle;rounded=0;orthogonalLoop=1;jettySize=auto;html=1;entryX=0.5;entryY=0;entryDx=0;entryDy=0;" edge="1" parent="1" source="pewL5Vv0dTGX8aQUwCoX-6" target="pewL5Vv0dTGX8aQUwCoX-9">
          <mxGeometry relative="1" as="geometry" />
        </mxCell>
        <mxCell id="pewL5Vv0dTGX8aQUwCoX-6" value="选择医院" style="rounded=0;whiteSpace=wrap;html=1;" vertex="1" parent="1">
          <mxGeometry x="280" y="200" width="80" height="40" as="geometry" />
        </mxCell>
        <mxCell id="pewL5Vv0dTGX8aQUwCoX-12" style="edgeStyle=orthogonalEdgeStyle;rounded=0;orthogonalLoop=1;jettySize=auto;html=1;entryX=0.5;entryY=0;entryDx=0;entryDy=0;" edge="1" parent="1" source="pewL5Vv0dTGX8aQUwCoX-9" target="pewL5Vv0dTGX8aQUwCoX-11">
          <mxGeometry relative="1" as="geometry" />
        </mxCell>
        <mxCell id="pewL5Vv0dTGX8aQUwCoX-9" value="选择科室" style="rounded=0;whiteSpace=wrap;html=1;" vertex="1" parent="1">
          <mxGeometry x="280" y="280" width="80" height="40" as="geometry" />
        </mxCell>
        <mxCell id="pewL5Vv0dTGX8aQUwCoX-14" style="edgeStyle=orthogonalEdgeStyle;rounded=0;orthogonalLoop=1;jettySize=auto;html=1;entryX=0.5;entryY=0;entryDx=0;entryDy=0;" edge="1" parent="1" source="pewL5Vv0dTGX8aQUwCoX-11" target="pewL5Vv0dTGX8aQUwCoX-13">
          <mxGeometry relative="1" as="geometry" />
        </mxCell>
        <mxCell id="pewL5Vv0dTGX8aQUwCoX-11" value="选择医生" style="rounded=0;whiteSpace=wrap;html=1;" vertex="1" parent="1">
          <mxGeometry x="280" y="360" width="80" height="40" as="geometry" />
        </mxCell>
        <mxCell id="pewL5Vv0dTGX8aQUwCoX-15" style="edgeStyle=orthogonalEdgeStyle;rounded=0;orthogonalLoop=1;jettySize=auto;html=1;" edge="1" parent="1" source="pewL5Vv0dTGX8aQUwCoX-13">
          <mxGeometry relative="1" as="geometry">
            <mxPoint x="200" y="470.0000000000001" as="targetPoint" />
          </mxGeometry>
        </mxCell>
        <mxCell id="pewL5Vv0dTGX8aQUwCoX-19" value="否" style="edgeLabel;html=1;align=center;verticalAlign=middle;resizable=0;points=[];" vertex="1" connectable="0" parent="pewL5Vv0dTGX8aQUwCoX-15">
          <mxGeometry x="-0.18" relative="1" as="geometry">
            <mxPoint as="offset" />
          </mxGeometry>
        </mxCell>
        <mxCell id="pewL5Vv0dTGX8aQUwCoX-21" style="edgeStyle=orthogonalEdgeStyle;rounded=0;orthogonalLoop=1;jettySize=auto;html=1;entryX=0;entryY=0.5;entryDx=0;entryDy=0;" edge="1" parent="1" source="pewL5Vv0dTGX8aQUwCoX-13">
          <mxGeometry relative="1" as="geometry">
            <mxPoint x="430" y="470" as="targetPoint" />
          </mxGeometry>
        </mxCell>
        <mxCell id="pewL5Vv0dTGX8aQUwCoX-22" value="是" style="edgeLabel;html=1;align=center;verticalAlign=middle;resizable=0;points=[];" vertex="1" connectable="0" parent="pewL5Vv0dTGX8aQUwCoX-21">
          <mxGeometry x="0.1005" relative="1" as="geometry">
            <mxPoint as="offset" />
          </mxGeometry>
        </mxCell>
        <mxCell id="pewL5Vv0dTGX8aQUwCoX-13" value="是否有号源" style="rhombus;whiteSpace=wrap;html=1;" vertex="1" parent="1">
          <mxGeometry x="260" y="440" width="120" height="60" as="geometry" />
        </mxCell>
        <mxCell id="pewL5Vv0dTGX8aQUwCoX-18" style="edgeStyle=orthogonalEdgeStyle;rounded=0;orthogonalLoop=1;jettySize=auto;html=1;entryX=0;entryY=0.5;entryDx=0;entryDy=0;" edge="1" parent="1" source="pewL5Vv0dTGX8aQUwCoX-16" target="pewL5Vv0dTGX8aQUwCoX-6">
          <mxGeometry relative="1" as="geometry">
            <mxPoint x="160" y="220" as="targetPoint" />
            <Array as="points">
              <mxPoint x="160" y="220" />
            </Array>
          </mxGeometry>
        </mxCell>
        <mxCell id="pewL5Vv0dTGX8aQUwCoX-16" value="无法预约挂号" style="rounded=0;whiteSpace=wrap;html=1;" vertex="1" parent="1">
          <mxGeometry x="120" y="450" width="80" height="40" as="geometry" />
        </mxCell>
        <mxCell id="pewL5Vv0dTGX8aQUwCoX-30" style="edgeStyle=orthogonalEdgeStyle;rounded=0;orthogonalLoop=1;jettySize=auto;html=1;entryX=0.5;entryY=0;entryDx=0;entryDy=0;" edge="1" parent="1" source="pewL5Vv0dTGX8aQUwCoX-27" target="pewL5Vv0dTGX8aQUwCoX-29">
          <mxGeometry relative="1" as="geometry" />
        </mxCell>
        <mxCell id="pewL5Vv0dTGX8aQUwCoX-32" value="是" style="edgeLabel;html=1;align=center;verticalAlign=middle;resizable=0;points=[];" vertex="1" connectable="0" parent="pewL5Vv0dTGX8aQUwCoX-30">
          <mxGeometry x="-0.2686" y="-1" relative="1" as="geometry">
            <mxPoint as="offset" />
          </mxGeometry>
        </mxCell>
        <mxCell id="pewL5Vv0dTGX8aQUwCoX-31" style="edgeStyle=orthogonalEdgeStyle;rounded=0;orthogonalLoop=1;jettySize=auto;html=1;entryX=0.5;entryY=1;entryDx=0;entryDy=0;" edge="1" parent="1" source="pewL5Vv0dTGX8aQUwCoX-27" target="pewL5Vv0dTGX8aQUwCoX-28">
          <mxGeometry relative="1" as="geometry">
            <Array as="points">
              <mxPoint x="490" y="420" />
              <mxPoint x="490" y="420" />
            </Array>
          </mxGeometry>
        </mxCell>
        <mxCell id="pewL5Vv0dTGX8aQUwCoX-34" value="否" style="edgeLabel;html=1;align=center;verticalAlign=middle;resizable=0;points=[];" vertex="1" connectable="0" parent="pewL5Vv0dTGX8aQUwCoX-31">
          <mxGeometry x="-0.23" y="-1" relative="1" as="geometry">
            <mxPoint as="offset" />
          </mxGeometry>
        </mxCell>
        <mxCell id="pewL5Vv0dTGX8aQUwCoX-27" value="是否已登录" style="rhombus;whiteSpace=wrap;html=1;" vertex="1" parent="1">
          <mxGeometry x="430" y="440" width="120" height="60" as="geometry" />
        </mxCell>
        <mxCell id="pewL5Vv0dTGX8aQUwCoX-35" style="edgeStyle=orthogonalEdgeStyle;rounded=0;orthogonalLoop=1;jettySize=auto;html=1;entryX=0.988;entryY=0.531;entryDx=0;entryDy=0;entryPerimeter=0;" edge="1" parent="1" source="pewL5Vv0dTGX8aQUwCoX-28" target="pewL5Vv0dTGX8aQUwCoX-29">
          <mxGeometry relative="1" as="geometry">
            <mxPoint x="540" y="561" as="targetPoint" />
            <Array as="points">
              <mxPoint x="600" y="380" />
              <mxPoint x="600" y="561" />
              <mxPoint x="530" y="561" />
            </Array>
          </mxGeometry>
        </mxCell>
        <mxCell id="pewL5Vv0dTGX8aQUwCoX-28" value="用户登录" style="rounded=0;whiteSpace=wrap;html=1;" vertex="1" parent="1">
          <mxGeometry x="450" y="360" width="80" height="40" as="geometry" />
        </mxCell>
        <mxCell id="pewL5Vv0dTGX8aQUwCoX-37" style="edgeStyle=orthogonalEdgeStyle;rounded=0;orthogonalLoop=1;jettySize=auto;html=1;entryX=1;entryY=0.5;entryDx=0;entryDy=0;" edge="1" parent="1" source="pewL5Vv0dTGX8aQUwCoX-29" target="pewL5Vv0dTGX8aQUwCoX-36">
          <mxGeometry relative="1" as="geometry" />
        </mxCell>
        <mxCell id="pewL5Vv0dTGX8aQUwCoX-29" value="发送请求&lt;br&gt;生成订单" style="rounded=0;whiteSpace=wrap;html=1;" vertex="1" parent="1">
          <mxGeometry x="450" y="540" width="80" height="40" as="geometry" />
        </mxCell>
        <mxCell id="pewL5Vv0dTGX8aQUwCoX-39" style="edgeStyle=orthogonalEdgeStyle;rounded=0;orthogonalLoop=1;jettySize=auto;html=1;entryX=1;entryY=0.5;entryDx=0;entryDy=0;" edge="1" parent="1" source="pewL5Vv0dTGX8aQUwCoX-36" target="pewL5Vv0dTGX8aQUwCoX-38">
          <mxGeometry relative="1" as="geometry" />
        </mxCell>
        <mxCell id="pewL5Vv0dTGX8aQUwCoX-36" value="支付订单" style="rounded=0;whiteSpace=wrap;html=1;" vertex="1" parent="1">
          <mxGeometry x="334" y="540" width="80" height="40" as="geometry" />
        </mxCell>
        <mxCell id="pewL5Vv0dTGX8aQUwCoX-38" value="订单支付&lt;br&gt;完成" style="rounded=1;whiteSpace=wrap;html=1;" vertex="1" parent="1">
          <mxGeometry x="220" y="540" width="80" height="40" as="geometry" />
        </mxCell>
      </root>
    </mxGraphModel>
  </diagram>
</mxfile>
